<?xml version="1.0" encoding="UTF-8"?>
<svg xmlns="http://www.w3.org/2000/svg" width="1920" height="1080" viewBox="0 0 1920 1080" preserveAspectRatio="xMidYMid slice">
  <defs>
    <linearGradient id="g" x1="0" y1="0" x2="1" y2="1">
      <stop offset="0%" stop-color="#1b5e20"/>
      <stop offset="50%" stop-color="#2e7d32"/>
      <stop offset="100%" stop-color="#66bb6a"/>
    </linearGradient>
    <filter id="grain"><feTurbulence baseFrequency="0.8" numOctaves="2" result="t"/><feColorMatrix type="saturate" values="0"/><feBlend in="SourceGraphic" in2="t" mode="overlay/></filter>
  </defs>
  <rect width="100%" height="100%" fill="url(#g)"/>
  <!-- stylized leaf pattern -->
  <g opacity="0.12" fill="#063a17">
    <path d="M120 200c60-40 140-40 200 0s120 120 80 180-160 40-220 0-120-160-60-180z" transform="translate(80 40) scale(2)"/>
    <path d="M400 80c50-30 110-30 160 0s95 95 60 140-120 30-165 0-95-130-55-140z" transform="translate(600 120) scale(1.6)"/>
    <path d="M800 300c70-50 160-50 230 0s140 140 90 210-190 50-260 0-140-190-60-210z" transform="translate(200 200) scale(1.4)"/>
  </g>
  <g opacity="0.06" fill="#ffffff">
    <circle cx="1600" cy="120" r="220"/>
    <circle cx="200" cy="900" r="180"/>
  </g>
</svg>